# xmcd
#
# Track frame offsets:
#	150
#	21734
#	52986
#	68054
#	81823
#	103344
#	180385
#
# Disc length: 3525 seconds
#
# Revision: 0
# Processed by: cddbd v1.5.2PL0 Copyright (c) Steve Scherf et al.
# Submitted via: audiograbber 1.83.01
#
DISCID=590dc307
DTITLE=Driftin - Driftin mit Menthol
DYEAR=2010
DGENRE=Blues
TTITLE0=Clean Love
TTITLE1=Summer Sun a G
TTITLE2=Folsom Prison Blues
TTITLE3=Walking on Sunset
TTITLE4=Key to the highway
TTITLE5=I would take a little time
TTITLE6=Armer Gigolo
EXTD=
EXTT0=
EXTT1=
EXTT2=
EXTT3=
EXTT4=
EXTT5=
EXTT6=
PLAYORDER=
